<svg width="80" height="80" viewBox="0 0 120 120" fill="none" xmlns="http://www.w3.org/2000/svg">
<path d="M33.3333 93.3333C35.2222 93.3333 36.8067 92.6933 38.0867 91.4133C39.3622 90.1378 40 88.5556 40 86.6667C40 84.7778 39.3622 83.1933 38.0867 81.9133C36.8067 80.6378 35.2222 80 33.3333 80C31.4444 80 29.86 80.6378 28.58 81.9133C27.3044 83.1933 26.6667 84.7778 26.6667 86.6667C26.6667 88.5556 27.3044 90.1378 28.58 91.4133C29.86 92.6933 31.4444 93.3333 33.3333 93.3333ZM33.3333 66.6667C35.2222 66.6667 36.8067 66.0267 38.0867 64.7467C39.3622 63.4711 40 61.8889 40 60C40 58.1111 39.3622 56.5267 38.0867 55.2467C36.8067 53.9711 35.2222 53.3333 33.3333 53.3333C31.4444 53.3333 29.86 53.9711 28.58 55.2467C27.3044 56.5267 26.6667 58.1111 26.6667 60C26.6667 61.8889 27.3044 63.4711 28.58 64.7467C29.86 66.0267 31.4444 66.6667 33.3333 66.6667ZM33.3333 40C35.2222 40 36.8067 39.36 38.0867 38.08C39.3622 36.8044 40 35.2222 40 33.3333C40 31.4444 39.3622 29.86 38.0867 28.58C36.8067 27.3044 35.2222 26.6667 33.3333 26.6667C31.4444 26.6667 29.86 27.3044 28.58 28.58C27.3044 29.86 26.6667 31.4444 26.6667 33.3333C26.6667 35.2222 27.3044 36.8044 28.58 38.08C29.86 39.36 31.4444 40 33.3333 40ZM53.3333 93.3333H93.3333V80H53.3333V93.3333ZM53.3333 66.6667H93.3333V53.3333H53.3333V66.6667ZM53.3333 40H93.3333V26.6667H53.3333V40ZM13.3333 120C9.66667 120 6.52667 118.696 3.91333 116.087C1.30444 113.473 0 110.333 0 106.667V13.3333C0 9.66667 1.30444 6.52667 3.91333 3.91333C6.52667 1.30444 9.66667 0 13.3333 0H106.667C110.333 0 113.473 1.30444 116.087 3.91333C118.696 6.52667 120 9.66667 120 13.3333V106.667C120 110.333 118.696 113.473 116.087 116.087C113.473 118.696 110.333 120 106.667 120H13.3333Z" fill="#555A54"/>
</svg>
