<svg width="29" height="29" viewBox="0 0 29 29" fill="none" xmlns="http://www.w3.org/2000/svg">
<path d="M14.5357 11.6786V7.39286H10.25V4.53571H14.5357V0.25H17.3929V4.53571H21.6786V7.39286H17.3929V11.6786H14.5357ZM8.82143 30.25C8.03571 30.25 7.36333 29.9705 6.80429 29.4114C6.24429 28.8514 5.96429 28.1786 5.96429 27.3929C5.96429 26.6071 6.24429 25.9343 6.80429 25.3743C7.36333 24.8152 8.03571 24.5357 8.82143 24.5357C9.60714 24.5357 10.2795 24.8152 10.8386 25.3743C11.3986 25.9343 11.6786 26.6071 11.6786 27.3929C11.6786 28.1786 11.3986 28.8514 10.8386 29.4114C10.2795 29.9705 9.60714 30.25 8.82143 30.25ZM23.1071 30.25C22.3214 30.25 21.649 29.9705 21.09 29.4114C20.53 28.8514 20.25 28.1786 20.25 27.3929C20.25 26.6071 20.53 25.9343 21.09 25.3743C21.649 24.8152 22.3214 24.5357 23.1071 24.5357C23.8929 24.5357 24.5657 24.8152 25.1257 25.3743C25.6848 25.9343 25.9643 26.6071 25.9643 27.3929C25.9643 28.1786 25.6848 28.8514 25.1257 29.4114C24.5657 29.9705 23.8929 30.25 23.1071 30.25ZM8.82143 23.1071C7.75 23.1071 6.92857 22.6367 6.35714 21.6957C5.78571 20.7557 5.77381 19.8214 6.32143 18.8929L8.25 15.3929L3.10714 4.53571H0.25V1.67857H4.92857L11 14.5357H21.0357L26.5714 4.53571L29.0714 5.89286L23.5357 15.8929C23.2738 16.369 22.9286 16.7381 22.5 17C22.0714 17.2619 21.5833 17.3929 21.0357 17.3929H10.3929L8.82143 20.25H25.9643V23.1071H8.82143Z" fill="white"/>
</svg>
