<svg width="80" height="80" viewBox="0 0 101 121" fill="none" xmlns="http://www.w3.org/2000/svg">
<path d="M0.474609 0.787109V21.7737H30.5293V0.787109H0.474609ZM35.4473 0.787109V21.7737H100.475V0.787109H35.4473ZM89.8189 6.97545C90.9783 6.97545 92.0902 7.429 92.9101 8.23634C93.7299 9.04367 94.1905 10.1386 94.1905 11.2804C94.1905 12.4221 93.7299 13.5171 92.9101 14.3244C92.0902 15.1318 90.9783 15.5853 89.8189 15.5853C88.6595 15.5853 87.5475 15.1318 86.7277 14.3244C85.9079 13.5171 85.4473 12.4221 85.4473 11.2804C85.4473 10.1386 85.9079 9.04367 86.7277 8.23634C87.5475 7.429 88.6595 6.97545 89.8189 6.97545ZM41.7314 8.85886H54.8462V13.7019H41.7314V8.85886ZM63.5894 8.85886H76.7041V13.7019H63.5894V8.85886ZM0.474609 26.6167V120.787H100.475V26.6167H0.474609ZM50.4746 34.6885C73.0702 34.6885 91.4582 52.7961 91.4582 75.0472C91.4582 97.2983 73.0702 115.406 50.4746 115.406C27.879 115.406 9.491 97.2983 9.491 75.0472C9.491 52.7961 27.879 34.6885 50.4746 34.6885ZM50.4746 39.5315C30.5293 39.5315 14.409 55.4059 14.409 75.0472C14.409 94.6885 30.5293 110.563 50.4746 110.563C63.726 110.563 75.2834 103.567 81.5402 93.101L73.3161 86.6167C71.1564 90.7496 67.8822 94.2167 63.8528 96.6374C59.8234 99.058 55.1946 100.339 50.4746 100.339C43.6635 100.337 37.1317 97.6722 32.3155 92.9294C27.4993 88.1866 24.793 81.7545 24.7916 75.0472C24.793 68.3399 27.4993 61.9078 32.3155 57.165C37.1317 52.4222 43.6635 49.7571 50.4746 49.7557C55.4175 49.7545 60.2558 51.1577 64.4091 53.7968C68.5624 56.436 71.8543 60.199 73.8899 64.6346L82.1959 58.0965C76.103 47.0382 64.1905 39.5315 50.4746 39.5315ZM48.5894 56.2131C34.9008 56.5091 27.5784 69.9351 31.6495 81.4777C31.4582 71.3073 39.8735 60.4911 48.5894 56.2131ZM84.2724 62.6436L75.5293 69.5315C75.9435 71.3418 76.1543 73.1915 76.1577 75.0472C76.1598 77.3665 75.838 79.6752 75.2014 81.9082L83.7806 88.6885C85.5566 84.4911 86.5402 79.8902 86.5402 75.0472C86.5402 70.6885 85.7478 66.4911 84.2724 62.6436Z" fill="#555A54"/>
</svg>
