<svg width="24" height="24" viewBox="0 0 24 24" fill="none" xmlns="http://www.w3.org/2000/svg">
<g clip-path="url(#clip0_916_2)">
<path d="M9.99844 18C9.99844 13.9219 13.0547 10.5609 16.9969 10.0688V9.99844C17.2547 9.62344 17.9953 9 17.9953 7.99688C17.9953 6.99375 16.9969 5.99531 16.9969 5.49844C17.0016 1.5 14.9625 0 12 0C9.16406 0 6.99844 1.5 6.99844 5.49844C6.99844 6 6 6.99844 6 7.99688C6 8.99531 6.7125 9.65625 6.99844 9.99844C6.99844 9.99844 6.99844 10.9969 7.5 12.4969C7.5 12.9984 8.49844 13.4953 9 13.9969C9 14.4984 9 14.9953 8.49844 15.9984L3 17.0016C0.998437 17.4984 0 21 0 24H12.7219C11.0578 22.5328 9.99844 20.3906 9.99844 18ZM18 12C14.6859 12 12 14.6859 12 18C12 21.3141 14.6859 24 18 24C21.3141 24 24 21.3141 24 18C24 14.6859 21.3141 12 18 12ZM21.9984 18.9984H18.9984V21.9984H16.9969V18.9984H13.9969V16.9969H16.9969V13.9969H18.9984V16.9969H21.9984V18.9984Z" fill="#555A54"/>
</g>
<defs>
<clipPath id="clip0_916_2">
<rect width="24" height="24" fill="white"/>
</clipPath>
</defs>
</svg>
