<svg width="24" height="24" viewBox="0 0 24 24" fill="none" xmlns="http://www.w3.org/2000/svg">
<path d="M22.079 2.4H1.9202C1.5218 2.4 1.2002 2.7204 1.2002 3.12V6H22.8002V3.12C22.8002 3.02535 22.7815 2.93163 22.7453 2.84419C22.709 2.75676 22.6559 2.67733 22.5889 2.61046C22.5219 2.54359 22.4424 2.49058 22.3549 2.45446C22.2674 2.41835 22.1736 2.39984 22.079 2.4ZM2.4002 19.92C2.4002 20.844 3.155 21.6 4.079 21.6H19.919C20.843 21.6 21.599 20.8428 21.599 19.92V7.2H2.4002V19.92ZM8.4002 9.6H15.6002V12H8.4002V9.6Z" fill="#555A54"/>
</svg>
