<svg width="24" height="24" viewBox="0 0 24 24" fill="none" xmlns="http://www.w3.org/2000/svg">
<path d="M16.4768 3.004C16.6438 3.019 16.7168 3.223 16.5968 3.342L8.27682 11.662C8.18283 11.756 8.11553 11.8734 8.08182 12.002L7.08182 15.832C7.04881 15.9586 7.04948 16.0916 7.08375 16.2178C7.11803 16.344 7.18472 16.4591 7.27721 16.5516C7.36971 16.6441 7.48478 16.7108 7.61101 16.7451C7.73725 16.7793 7.87025 16.78 7.99682 16.747L11.8258 15.747C11.9545 15.713 12.0719 15.6453 12.1658 15.551L20.6038 7.113C20.6302 7.0859 20.6638 7.06693 20.7007 7.05833C20.7375 7.04974 20.7761 7.05188 20.8117 7.06451C20.8474 7.07713 20.8787 7.09971 20.9019 7.12957C20.9252 7.15943 20.9394 7.19532 20.9428 7.233C21.2939 10.5826 21.2737 13.9608 20.8828 17.306C20.6598 19.211 19.1288 20.706 17.2308 20.919C13.7545 21.3044 10.2462 21.3044 6.76982 20.919C4.87082 20.706 3.33982 19.211 3.11682 17.306C2.70455 13.781 2.70455 10.22 3.11682 6.695C3.33982 4.789 4.87082 3.294 6.76982 3.082C9.99434 2.72466 13.247 2.69852 16.4768 3.004Z" fill="#1F8C80"/>
<path d="M17.8231 4.23701C17.8463 4.21372 17.8739 4.19525 17.9043 4.18265C17.9347 4.17005 17.9672 4.16356 18.0001 4.16356C18.033 4.16356 18.0656 4.17005 18.0959 4.18265C18.1263 4.19525 18.1539 4.21372 18.1771 4.23701L19.5911 5.65201C19.6378 5.69887 19.6641 5.76234 19.6641 5.82851C19.6641 5.89467 19.6378 5.95814 19.5911 6.00501L11.2981 14.3C11.2665 14.3313 11.2272 14.3537 11.1841 14.365L9.27012 14.865C9.22793 14.876 9.1836 14.8758 9.14152 14.8644C9.09944 14.8529 9.06109 14.8307 9.03025 14.7999C8.99942 14.769 8.97719 14.7307 8.96577 14.6886C8.95434 14.6465 8.95412 14.6022 8.96512 14.56L9.46512 12.646C9.47625 12.6029 9.49869 12.5635 9.53012 12.532L17.8231 4.23701Z" fill="#1F8C80"/>
</svg>
