<svg width="25" height="25" viewBox="0 0 25 25" fill="none" xmlns="http://www.w3.org/2000/svg">
<path d="M20.8977 19.4766C22.0196 18.1266 22.8 16.5264 23.1727 14.8111C23.5454 13.0958 23.4995 11.316 23.0388 9.62219C22.5782 7.92841 21.7164 6.37048 20.5263 5.08021C19.3362 3.78993 17.8529 2.80527 16.2018 2.20951C14.5507 1.61375 12.7804 1.42443 11.0406 1.65756C9.30084 1.89068 7.64283 2.5394 6.20681 3.54883C4.77079 4.55825 3.59902 5.8987 2.79062 7.45677C1.98222 9.01484 1.56097 10.7447 1.5625 12.5C1.56309 15.0517 2.4623 17.5217 4.10235 19.4766L4.08672 19.4898C4.14141 19.5555 4.20391 19.6117 4.26016 19.6766C4.33047 19.757 4.40625 19.8328 4.47891 19.9109C4.69766 20.1484 4.92266 20.3766 5.1586 20.5906C5.23047 20.6562 5.30469 20.7172 5.37735 20.7797C5.62735 20.9953 5.88438 21.2 6.15079 21.3906C6.18516 21.4141 6.21641 21.4445 6.25079 21.4687V21.4594C8.08055 22.747 10.2634 23.4381 12.5008 23.4381C14.7382 23.4381 16.921 22.747 18.7508 21.4594V21.4687C18.7852 21.4445 18.8156 21.4141 18.8508 21.3906C19.1164 21.1992 19.3742 20.9953 19.6242 20.7797C19.6969 20.7172 19.7711 20.6555 19.843 20.5906C20.0789 20.3758 20.3039 20.1484 20.5227 19.9109C20.5953 19.8328 20.6703 19.757 20.7414 19.6766C20.7969 19.6117 20.8602 19.5555 20.9148 19.4891L20.8977 19.4766ZM12.5 6.24999C13.1953 6.24999 13.875 6.45618 14.4532 6.84248C15.0313 7.22878 15.4819 7.77785 15.748 8.42025C16.0141 9.06264 16.0837 9.76952 15.9481 10.4515C15.8124 11.1334 15.4776 11.7599 14.9859 12.2515C14.4943 12.7432 13.8678 13.078 13.1859 13.2137C12.5039 13.3493 11.797 13.2797 11.1546 13.0136C10.5122 12.7475 9.96317 12.2969 9.57687 11.7188C9.19057 11.1407 8.98438 10.4609 8.98438 9.76562C8.98438 8.83322 9.35477 7.939 10.0141 7.2797C10.6734 6.62039 11.5676 6.24999 12.5 6.24999V6.24999ZM6.25547 19.4766C6.26903 18.4507 6.6859 17.4715 7.41591 16.7507C8.14592 16.0299 9.13036 15.6255 10.1563 15.625H14.8438C15.8696 15.6255 16.8541 16.0299 17.5841 16.7507C18.3141 17.4715 18.731 18.4507 18.7445 19.4766C17.0311 21.0206 14.8065 21.8751 12.5 21.8751C10.1936 21.8751 7.96888 21.0206 6.25547 19.4766V19.4766Z" fill="#555A54"/>
</svg>
