<svg width="24" height="24" viewBox="0 0 24 24" fill="none" xmlns="http://www.w3.org/2000/svg">
<path d="M16.9267 16.9667C16.7789 16.8708 16.5992 16.8373 16.4268 16.8736C16.2544 16.9098 16.1034 17.0128 16.0067 17.16C15.0667 18.6 13.34 20.3667 11.8 20.96C10.26 21.5533 9.05333 21.34 8.57333 20.96C8.36667 20.78 7.82667 20.2933 8.28667 18.6333C8.59333 17.5267 10.5 12.3133 10.9533 11.0467L9.5 11.2333C9.04 12.4733 7.30667 17.1267 6.99333 18.2867C6.54 19.9467 6.76667 21.1533 7.72 21.9933C8.38611 22.4607 9.18687 22.6972 10 22.6667C10.789 22.6553 11.569 22.497 12.3 22.2C14.16 21.4733 16.1133 19.4533 17.14 17.8867C17.1865 17.8123 17.218 17.7295 17.2324 17.6429C17.2469 17.5564 17.2441 17.4678 17.2243 17.3824C17.2045 17.2969 17.168 17.2162 17.1169 17.1448C17.0659 17.0735 17.0012 17.013 16.9267 16.9667V16.9667Z" fill="#555A54"/>
<path d="M12.8667 7.33334C13.46 7.33334 14.04 7.1574 14.5334 6.82775C15.0267 6.49811 15.4112 6.02957 15.6383 5.4814C15.8654 4.93322 15.9248 4.33002 15.809 3.74807C15.6933 3.16613 15.4075 2.63158 14.988 2.21202C14.5684 1.79247 14.0339 1.50674 13.4519 1.39099C12.87 1.27523 12.2668 1.33464 11.7186 1.56171C11.1704 1.78877 10.7019 2.17329 10.3723 2.66663C10.0426 3.15998 9.86667 3.74 9.86667 4.33334C9.86667 5.12899 10.1827 5.89206 10.7453 6.45467C11.308 7.01727 12.071 7.33334 12.8667 7.33334V7.33334ZM12.8667 2.66668C13.1963 2.66668 13.5185 2.76443 13.7926 2.94756C14.0667 3.1307 14.2803 3.391 14.4065 3.69554C14.5326 4.00008 14.5656 4.33519 14.5013 4.6585C14.437 4.9818 14.2783 5.27877 14.0452 5.51186C13.8121 5.74494 13.5151 5.90368 13.1918 5.96799C12.8685 6.0323 12.5334 5.99929 12.2289 5.87314C11.9243 5.747 11.664 5.53338 11.4809 5.2593C11.2977 4.98521 11.2 4.66298 11.2 4.33334C11.2 3.89132 11.3756 3.46739 11.6882 3.15483C12.0007 2.84227 12.4246 2.66668 12.8667 2.66668Z" fill="#555A54"/>
<path d="M7.87333 9.99999C7.91333 9.99999 12.0533 9.45333 13.0267 9.33333C13.46 9.26666 13.7867 9.33333 13.8933 9.43333C14 9.53333 14.0333 9.96666 13.8467 10.5533C13.44 11.7933 11.3867 17.8867 10.7867 19.6933C11.0799 19.6332 11.3676 19.5484 11.6467 19.44C11.9136 19.3296 12.1701 19.1958 12.4133 19.04C13.2333 16.6667 14.7667 12.0667 15.1133 11.0133C15.46 9.95999 15.3733 9.15999 14.9133 8.61333C14.6509 8.34726 14.3224 8.15579 13.9616 8.05856C13.6008 7.96132 13.2206 7.96182 12.86 8.05999C11.9067 8.15999 7.88 8.68666 7.70667 8.72666C7.52986 8.74965 7.36942 8.84193 7.26065 8.98321C7.15188 9.12448 7.10368 9.30318 7.12667 9.47999C7.14965 9.65681 7.24193 9.81724 7.38321 9.92601C7.52449 10.0348 7.70319 10.083 7.88 10.06L7.87333 9.99999Z" fill="#555A54"/>
</svg>
