<svg width="25" height="25" viewBox="0 0 25 25" fill="none" xmlns="http://www.w3.org/2000/svg">
<path d="M22.649 12.8447L13.274 2.42808C12.8792 1.98849 12.1209 1.98849 11.7261 2.42808L2.35107 12.8447C2.21612 12.9943 2.12755 13.1799 2.09611 13.3789C2.06467 13.5778 2.09173 13.7817 2.17398 13.9656C2.34065 14.3416 2.71357 14.5833 3.12502 14.5833H5.20836V21.8749C5.20836 22.1512 5.3181 22.4162 5.51346 22.6115C5.70881 22.8069 5.97376 22.9166 6.25002 22.9166H9.37503C9.65129 22.9166 9.91624 22.8069 10.1116 22.6115C10.3069 22.4162 10.4167 22.1512 10.4167 21.8749V17.7083H14.5834V21.8749C14.5834 22.1512 14.6931 22.4162 14.8885 22.6115C15.0838 22.8069 15.3488 22.9166 15.625 22.9166H18.75C19.0263 22.9166 19.2912 22.8069 19.4866 22.6115C19.6819 22.4162 19.7917 22.1512 19.7917 21.8749V14.5833H21.875C22.0768 14.5841 22.2744 14.5263 22.4438 14.4168C22.6132 14.3073 22.7471 14.1508 22.8292 13.9665C22.9112 13.7822 22.9379 13.578 22.9059 13.3788C22.8739 13.1796 22.7846 12.9941 22.649 12.8447Z" fill="#1f8c80"/>
</svg>
