<svg width="24" height="24" viewBox="0 0 24 24" fill="none" xmlns="http://www.w3.org/2000/svg">
<g clip-path="url(#clip0_1011_2)">
<path d="M19.527 4.799C20.739 7.407 20.464 10.477 19.122 12.972C18.021 15.019 16.378 16.712 15.024 18.586C14.405 19.444 13.7799 20.336 13.3549 21.313C13.2139 21.638 13.092 21.971 12.972 22.305C12.851 22.638 12.748 22.978 12.632 23.313C12.523 23.627 12.396 23.997 12.005 24H11.998C11.532 23.999 11.419 23.47 11.303 23.113C11.019 22.239 10.722 21.4 10.284 20.588C9.77395 19.644 9.13895 18.771 8.49395 17.917L19.527 4.799ZM8.54495 7.705L4.58595 12.412C5.30995 13.952 6.40695 15.275 7.45695 16.592C7.70395 16.902 7.95095 17.214 8.19395 17.528L13.178 11.603L13.149 11.613C11.408 12.214 9.45795 11.322 8.75695 9.626C8.66106 9.39578 8.59097 9.15565 8.54795 8.91C8.48495 8.473 8.47095 8.149 8.54395 7.712L8.54495 7.705ZM5.49195 3.149L5.48895 3.153C3.54195 5.619 3.20795 9.033 4.37195 11.923L9.15695 6.234L9.09895 6.184L5.49195 3.149ZM14.661 0.436001L10.8229 4.999C10.8318 4.99523 10.8408 4.99189 10.85 4.989C12.45 4.438 14.253 5.139 15.07 6.615C15.246 6.934 15.3929 7.298 15.4469 7.66C15.5149 8.106 15.532 8.433 15.459 8.88L15.456 8.896L19.292 4.335C18.2895 2.50665 16.6416 1.11757 14.67 0.439001L14.661 0.436001ZM9.46595 5.868L14.162 0.285001L14.115 0.273001C13.4201 0.0903465 12.7044 -0.00141877 11.986 9.65063e-07C10.8226 0.0108977 9.67398 0.262239 8.61236 0.738238C7.55074 1.21424 6.59901 1.90461 5.81695 2.766L5.80095 2.784L9.46595 5.868Z" fill="#1F8C80"/>
</g>
<defs>
<clipPath id="clip0_1011_2">
<rect width="24" height="24" fill="white"/>
</clipPath>
</defs>
</svg>
