<svg width="43" height="43" viewBox="0 0 43 43" fill="none" xmlns="http://www.w3.org/2000/svg">
<ellipse cx="22" cy="20.5" rx="13" ry="9.5" fill="white"/>
<path d="M18.3889 29.1578L18.389 29.1579L18.3981 29.1489L22.47 25.0777L26.5377 29.1447C26.7063 29.3208 26.9081 29.4617 27.1315 29.5593C27.357 29.6579 27.6 29.7103 27.8461 29.7134C28.0922 29.7166 28.3364 29.6704 28.5644 29.5777C28.7924 29.485 28.9995 29.3475 29.1735 29.1735C29.3475 28.9995 29.485 28.7924 29.5777 28.5644C29.6704 28.3364 29.7166 28.0922 29.7134 27.8461C29.7103 27.6 29.6579 27.357 29.5593 27.1315C29.4617 26.9081 29.3208 26.7063 29.1447 26.5377L25.0777 22.47L29.1489 18.3981L29.149 18.3982L29.1578 18.3889C29.489 18.0403 29.6709 17.5761 29.6648 17.0953C29.6586 16.6145 29.4649 16.1552 29.1249 15.8151C28.7848 15.4751 28.3255 15.2814 27.8447 15.2752C27.3639 15.2691 26.8997 15.451 26.5511 15.7822L26.551 15.7821L26.5419 15.7911L22.47 19.8623L18.3981 15.7911L18.3982 15.791L18.3889 15.7822C18.0403 15.451 17.5761 15.2691 17.0953 15.2752C16.6145 15.2814 16.1552 15.4751 15.8151 15.8151C15.4751 16.1552 15.2814 16.6145 15.2752 17.0953C15.2691 17.5761 15.451 18.0403 15.7822 18.3889L15.7821 18.389L15.7911 18.3981L19.8623 22.47L15.7911 26.5419L15.791 26.5418L15.7822 26.5511C15.451 26.8997 15.2691 27.3639 15.2752 27.8447C15.2814 28.3255 15.4751 28.7848 15.8151 29.1249C16.1552 29.4649 16.6145 29.6586 17.0953 29.6648C17.5761 29.6709 18.0403 29.489 18.3889 29.1578ZM5.5 22.47C5.5 13.1133 13.1133 5.5 22.47 5.5C31.8267 5.5 39.44 13.1133 39.44 22.47C39.44 31.8267 31.8267 39.44 22.47 39.44C13.1133 39.44 5.5 31.8267 5.5 22.47Z" fill="#DD2848" stroke="white"/>
</svg>
