<svg width="43" height="43" viewBox="0 0 43 43" fill="none" xmlns="http://www.w3.org/2000/svg">
<ellipse cx="21" cy="22.5" rx="13" ry="9.5" fill="white"/>
<path d="M29.5625 19.6562H30.0625V20.1562V22.8438V23.3438H29.5625H23.3438V29.5625V30.0625H22.8438H20.1562H19.6562V29.5625V23.3438H13.4375H12.9375V22.8438V20.1562V19.6562H13.4375H19.6562V13.4375V12.9375H20.1562H22.8438H23.3438V13.4375V19.6562H29.5625ZM4.53125 21.5C4.53125 30.856 12.144 38.4688 21.5 38.4688C30.856 38.4688 38.4688 30.856 38.4688 21.5C38.4688 12.144 30.856 4.53125 21.5 4.53125C12.144 4.53125 4.53125 12.144 4.53125 21.5Z" fill="#0BCAD4" stroke="white"/>
</svg>
