<svg width="24" height="24" viewBox="0 0 24 24" fill="none" xmlns="http://www.w3.org/2000/svg">
<path d="M12.0001 2.4C10.7271 2.4 9.50616 2.90571 8.60599 3.80589C7.70581 4.70606 7.2001 5.92696 7.2001 7.2C7.2001 8.47304 7.70581 9.69394 8.60599 10.5941C9.50616 11.4943 10.7271 12 12.0001 12C13.2731 12 14.494 11.4943 15.3942 10.5941C16.2944 9.69394 16.8001 8.47304 16.8001 7.2C16.8001 5.92696 16.2944 4.70606 15.3942 3.80589C14.494 2.90571 13.2731 2.4 12.0001 2.4ZM6.0109 13.2C5.69486 13.1987 5.38168 13.2599 5.08933 13.3799C4.79697 13.4999 4.53118 13.6765 4.30721 13.8995C4.08323 14.1224 3.90548 14.3874 3.78414 14.6792C3.6628 14.9711 3.60025 15.284 3.6001 15.6C3.6001 17.6292 4.5997 19.1592 6.1621 20.1564C7.4197 20.958 9.0361 21.414 10.8001 21.552V16.8C10.8001 16.1635 11.053 15.553 11.503 15.1029C11.9531 14.6529 12.5636 14.4 13.2001 14.4H20.0785C19.8679 14.0352 19.5649 13.7322 19.2001 13.5216C18.8352 13.3109 18.4214 13.2 18.0001 13.2H6.0109ZM22.8001 17.4V21C22.8001 21.4774 22.6105 21.9352 22.2729 22.2728C21.9353 22.6104 21.4775 22.8 21.0001 22.8H13.8001C13.3227 22.8 12.8649 22.6104 12.5273 22.2728C12.1897 21.9352 12.0001 21.4774 12.0001 21V17.4C12.0001 16.9226 12.1897 16.4648 12.5273 16.1272C12.8649 15.7896 13.3227 15.6 13.8001 15.6H21.0001C21.4775 15.6 21.9353 15.7896 22.2729 16.1272C22.6105 16.4648 22.8001 16.9226 22.8001 17.4ZM21.6001 21V19.8C21.1227 19.8 20.6649 19.9896 20.3273 20.3272C19.9897 20.6648 19.8001 21.1226 19.8001 21.6H21.0001C21.0001 21.4409 21.0633 21.2883 21.1758 21.1757C21.2884 21.0632 21.441 21 21.6001 21ZM21.6001 17.4C21.441 17.4 21.2884 17.3368 21.1758 17.2243C21.0633 17.1117 21.0001 16.9591 21.0001 16.8H19.8001C19.8001 17.2774 19.9897 17.7352 20.3273 18.0728C20.6649 18.4104 21.1227 18.6 21.6001 18.6V17.4ZM13.8001 16.8C13.8001 16.9591 13.7369 17.1117 13.6244 17.2243C13.5118 17.3368 13.3592 17.4 13.2001 17.4V18.6C13.6775 18.6 14.1353 18.4104 14.4729 18.0728C14.8105 17.7352 15.0001 17.2774 15.0001 16.8H13.8001ZM13.2001 21C13.3592 21 13.5118 21.0632 13.6244 21.1757C13.7369 21.2883 13.8001 21.4409 13.8001 21.6H15.0001C15.0001 21.1226 14.8105 20.6648 14.4729 20.3272C14.1353 19.9896 13.6775 19.8 13.2001 19.8V21ZM17.4001 17.4C16.9227 17.4 16.4649 17.5896 16.1273 17.9272C15.7897 18.2648 15.6001 18.7226 15.6001 19.2C15.6001 19.6774 15.7897 20.1352 16.1273 20.4728C16.4649 20.8104 16.9227 21 17.4001 21C17.8775 21 18.3353 20.8104 18.6729 20.4728C19.0105 20.1352 19.2001 19.6774 19.2001 19.2C19.2001 18.7226 19.0105 18.2648 18.6729 17.9272C18.3353 17.5896 17.8775 17.4 17.4001 17.4Z" fill="#1f8c80"/>
</svg>
