<svg width="20" height="20" viewBox="0 0 20 20" fill="none" xmlns="http://www.w3.org/2000/svg">
<path d="M19.7691 0.242683C19.6565 0.13075 19.5142 0.0532513 19.359 0.0192998C19.2038 -0.0146517 19.0422 -0.00364489 18.893 0.0510261L0.538418 6.71735C0.380125 6.77732 0.243843 6.88397 0.147674 7.02313C0.0515052 7.16229 0 7.32738 0 7.49648C0 7.66557 0.0515052 7.83066 0.147674 7.96982C0.243843 8.10899 0.380125 8.21563 0.538418 8.2756L7.70507 11.1338L12.9945 5.83406L14.1709 7.009L8.8564 12.3171L11.7264 19.475C11.7882 19.6301 11.8952 19.763 12.0336 19.8566C12.1719 19.9502 12.3352 20.0002 12.5023 20C12.6709 19.9965 12.8345 19.9421 12.9715 19.844C13.1085 19.7458 13.2126 19.6084 13.2699 19.45L19.9443 1.11764C20.0011 0.970209 20.0148 0.809679 19.9838 0.654765C19.9528 0.49985 19.8783 0.356935 19.7691 0.242683Z" fill="#AFAFAF"/>
</svg>
